<svg width="25" height="27" viewBox="0 0 25 27" fill="none" xmlns="http://www.w3.org/2000/svg">
<path d="M21.7159 10.1251H10.3409V7.87512C10.3413 7.66116 10.2855 7.45154 10.1802 7.27085C10.0748 7.09016 9.92435 6.94588 9.74633 6.85495C9.56831 6.76402 9.37014 6.7302 9.17508 6.75746C8.98001 6.78472 8.79614 6.87194 8.64502 7.00887L3.39184 11.7676C3.15764 11.9787 2.96912 12.2435 2.83973 12.5429C2.71034 12.8424 2.64325 13.1692 2.64325 13.5001C2.64325 13.831 2.71034 14.1578 2.83973 14.4573C2.96912 14.7568 3.15764 15.0215 3.39184 15.2326L8.64502 19.9914C8.83107 20.1591 9.06522 20.2506 9.30684 20.2501C9.45665 20.251 9.60484 20.2164 9.74116 20.1489C9.92066 20.0585 10.0726 19.914 10.1789 19.7326C10.2852 19.5511 10.3414 19.3403 10.3409 19.1251V16.8751H21.7159C21.9902 16.8751 22.2532 16.7566 22.4471 16.5456C22.6411 16.3346 22.75 16.0485 22.75 15.7501V11.2501C22.75 10.9518 22.6411 10.6656 22.4471 10.4546C22.2532 10.2436 21.9902 10.1251 21.7159 10.1251Z" fill="#0F2F81"/>
</svg>
