<?xml version="1.0" encoding="iso-8859-1"?>
<!-- Uploaded to: SVG Repo, www.svgrepo.com, Generator: SVG Repo Mixer Tools -->
<!DOCTYPE svg PUBLIC "-//W3C//DTD SVG 1.1//EN" "http://www.w3.org/Graphics/SVG/1.1/DTD/svg11.dtd">
<svg fill="#000000" version="1.1" id="Capa_1" xmlns="http://www.w3.org/2000/svg" xmlns:xlink="http://www.w3.org/1999/xlink" 
	 width="800px" height="800px" viewBox="0 0 893.4 893.4" xml:space="preserve"
	>
<g>
	<path d="M747.3,0H146.101c-13.8,0-25,11.2-25,25v700.5H234c30.3,0,55,24.7,55,55v112.9H747.3c13.801,0,25-11.2,25-25V25
		C772.3,11.2,761.101,0,747.3,0z M636.901,655.6H256.5c-13.8,0-25-11.199-25-25c0-13.8,11.2-25,25-25h380.401
		c13.799,0,25,11.2,25,25C661.901,644.4,650.7,655.6,636.901,655.6z M636.901,543.5H256.5c-13.8,0-25-11.2-25-25s11.2-25,25-25
		h380.401c13.799,0,25,11.2,25,25S650.7,543.5,636.901,543.5z M661.901,406.4c0,13.8-11.201,25-25,25H256.5c-13.8,0-25-11.2-25-25
		l0,0c0-13.801,11.2-25,25-25h380.401C650.7,381.4,661.901,392.6,661.901,406.4L661.901,406.4z M661.901,98.3
		c0,12.5-10.102,22.6-22.602,22.6l-97.6,1v55.7l81.201-1c12.5,0,22.6,10.1,22.6,22.6l0,0c0,12.5-10.1,22.6-22.6,22.6l-81.201,1v82
		c0,12.5-10.1,22.6-22.6,22.6h-8.1c-12.5,0-22.6-10.1-22.6-22.6V98.3c0-12.5,10.1-22.6,22.6-22.6H639.3
		C651.8,75.7,661.901,85.8,661.901,98.3L661.901,98.3z"/>
	<path d="M234,755.5h-110.9h-2L259,893.4v-0.7V780.5C259,766.7,247.801,755.5,234,755.5z"/>
</g>
</svg>