<?xml version="1.0" standalone="no"?>
<!DOCTYPE svg PUBLIC "-//W3C//DTD SVG 20010904//EN"
 "http://www.w3.org/TR/2001/REC-SVG-20010904/DTD/svg10.dtd">
<svg version="1.0" xmlns="http://www.w3.org/2000/svg"
 width="300.000000pt" height="141.000000pt" viewBox="0 0 300.000000 141.000000"
 preserveAspectRatio="xMidYMid meet">
<metadata>
Created by potrace 1.10, written by Peter Selinger 2001-2011
</metadata>
<g transform="translate(0.000000,141.000000) scale(0.100000,-0.100000)"
fill="#000000" stroke="none">
<path d="M410 1008 l0 -145 30 -1 c29 -1 30 0 30 47 l0 49 62 4 c51 4 65 9 85
32 31 36 31 86 -1 123 -23 26 -30 28 -115 31 l-91 4 0 -144z m151 82 c11 -6
19 -21 19 -35 0 -29 -26 -45 -74 -45 -36 0 -36 0 -36 45 0 45 0 45 36 45 19 0
44 -5 55 -10z"/>
<path d="M1062 1058 c1 -114 17 -160 63 -182 44 -21 45 -21 45 14 0 19 -5 30
-14 30 -21 0 -34 22 -37 65 -4 37 -2 40 21 40 20 0 26 6 28 28 3 25 1 28 -25
25 -26 -3 -27 -1 -24 35 2 35 1 37 -27 37 l-30 0 0 -92z"/>
<path d="M1472 1008 l3 -143 25 0 25 0 3 143 3 142 -31 0 -31 0 3 -142z"/>
<path d="M1592 1108 c-13 -13 -17 -202 -6 -232 5 -13 23 -16 95 -16 79 0 89 2
100 21 8 17 15 164 10 227 -1 17 -182 17 -199 0z m178 -103 l0 -96 -72 3 -73
3 -3 79 c-2 44 -1 85 2 93 4 9 26 13 76 13 l70 0 0 -95z m-80 -126 c-44 -4
-79 -4 -84 2 -6 5 22 8 75 8 l84 -2 -75 -8z"/>
<path d="M1660 1050 c0 -17 7 -20 40 -20 33 0 40 3 40 20 0 17 -7 20 -40 20
-33 0 -40 -3 -40 -20z"/>
<path d="M714 1046 c-28 -28 -34 -42 -34 -76 0 -34 6 -48 34 -76 51 -51 119
-43 156 18 24 39 25 69 5 108 -34 65 -110 77 -161 26z m104 -36 c26 -25 28
-47 5 -72 -18 -20 -63 -24 -81 -6 -20 20 -14 65 10 82 29 21 40 20 66 -4z"/>
<path d="M969 1052 c-27 -24 -32 -36 -36 -94 -7 -83 -2 -97 31 -91 25 5 26 8
26 74 0 58 3 70 20 79 24 13 28 60 5 60 -8 0 -29 -13 -46 -28z"/>
<path d="M1245 1049 c-30 -27 -35 -37 -35 -75 0 -34 6 -51 28 -75 25 -28 33
-31 105 -35 l77 -4 0 66 c0 76 -18 117 -60 139 -44 23 -76 18 -115 -16z m103
-39 c51 -48 -5 -114 -69 -80 -27 15 -25 64 3 84 29 21 40 20 66 -4z"/>
<path d="M413 828 c3 -7 27 -65 54 -128 28 -63 53 -124 57 -135 6 -16 12 -9
32 39 13 33 24 68 24 79 0 32 13 11 41 -66 25 -67 28 -70 37 -47 5 14 33 78
61 144 28 65 51 120 51 122 0 2 -14 4 -30 4 -31 0 -40 -12 -82 -120 -9 -23
-11 -21 -34 35 -13 33 -24 66 -24 73 0 6 -4 12 -10 12 -5 0 -10 -6 -10 -13 0
-8 -11 -40 -24 -73 -23 -56 -25 -58 -34 -34 -44 110 -50 120 -83 120 -21 0
-30 -4 -26 -12z"/>
<path d="M1030 695 c0 -137 1 -145 19 -145 11 0 23 5 26 10 4 7 13 6 27 -1 29
-15 86 -4 114 22 47 44 40 130 -13 165 -18 11 -40 15 -73 12 l-47 -5 5 44 c5
43 4 43 -27 43 l-31 0 0 -145z m156 -10 c15 -22 15 -29 4 -51 -18 -33 -55 -42
-80 -19 -22 20 -26 65 -8 83 21 21 66 14 84 -13z"/>
<path d="M1460 693 l0 -143 95 0 95 0 0 31 0 31 -65 -4 -65 -4 0 33 0 33 55 0
c52 0 55 1 55 25 0 24 -3 25 -55 25 -54 0 -55 0 -55 30 l0 30 65 0 c64 0 65 0
65 28 l0 27 -95 1 -95 0 0 -143z"/>
<path d="M1773 758 c-54 -14 -73 -49 -73 -134 0 -72 1 -74 25 -74 24 0 25 2
25 63 0 69 17 97 57 97 36 0 53 -31 53 -98 0 -59 1 -62 25 -62 24 0 25 2 25
68 0 49 -5 76 -20 100 -11 17 -21 32 -22 32 -2 0 -17 4 -33 8 -17 5 -44 5 -62
0z"/>
<path d="M2447 759 c-16 -4 -34 -12 -40 -17 -8 -7 -18 -6 -31 4 -30 22 -98 18
-125 -7 -31 -29 -41 -61 -41 -130 0 -59 0 -59 30 -59 l30 0 0 68 c0 73 10 92
46 92 40 0 54 -26 54 -96 0 -65 0 -65 27 -62 26 3 27 5 24 56 -3 63 17 102 54
102 41 0 55 -25 55 -96 0 -63 0 -64 28 -64 l27 0 -3 73 c-3 57 -8 79 -25 100
-26 32 -71 47 -110 36z"/>
<path d="M808 737 c-68 -63 -36 -169 54 -183 40 -7 92 15 108 46 10 18 8 20
-24 20 -19 0 -38 -4 -41 -10 -10 -16 -41 -12 -66 10 l-24 19 88 1 c53 0 87 4
87 10 0 24 -30 79 -51 94 -35 24 -101 21 -131 -7z m110 -39 c7 -7 12 -15 12
-18 0 -4 -83 -4 -110 0 -3 0 4 7 14 15 24 18 68 19 84 3z"/>
<path d="M1992 735 c-38 -32 -48 -72 -28 -118 15 -38 59 -67 99 -67 26 0 88
38 95 58 5 16 -38 16 -73 0 -20 -9 -31 -8 -50 2 -42 23 -28 30 55 30 86 0 90
3 71 53 -27 69 -112 90 -169 42z m106 -37 c20 -20 14 -23 -38 -23 -52 0 -58 3
-38 23 15 15 61 15 76 0z"/>
<path d="M416 363 c3 -27 10 -52 15 -58 11 -12 41 4 47 26 4 11 2 12 -9 2 -18
-17 -29 -16 -29 2 0 8 7 15 16 15 8 0 12 5 9 11 -4 6 -13 8 -21 5 -8 -3 -14 1
-14 9 0 9 10 15 25 15 14 0 25 5 25 10 0 6 -16 10 -36 10 l-35 0 7 -47z"/>
<path d="M570 385 c0 -8 -6 -15 -12 -15 -8 -1 -6 -6 5 -14 9 -7 17 -20 17 -29
0 -17 18 -33 26 -24 3 3 1 15 -6 26 -9 17 -8 21 5 21 8 0 15 5 15 11 0 5 -5 7
-11 4 -6 -4 -13 2 -16 14 -6 24 -23 28 -23 6z"/>
<path d="M733 378 c5 -18 0 -26 -18 -35 -23 -10 -25 -9 -25 13 0 13 -5 24 -11
24 -6 0 -8 -8 -5 -17 7 -23 -10 -51 -23 -38 -5 6 -11 19 -14 30 -4 16 -5 15
-6 -5 -1 -39 14 -57 37 -43 14 8 23 8 30 1 6 -6 21 -8 34 -5 21 6 23 11 20 52
-2 25 -9 45 -14 45 -6 0 -8 -10 -5 -22z"/>
<path d="M500 375 c-15 -18 -6 -45 16 -45 13 0 14 -3 4 -15 -7 -8 -8 -15 -2
-15 15 0 34 28 27 40 -4 6 -13 9 -21 6 -7 -3 -16 -1 -19 5 -4 5 1 12 9 15 9 3
16 10 16 15 0 14 -16 11 -30 -6z"/>
<path d="M905 363 c-9 -8 -15 -25 -13 -37 2 -16 10 -21 36 -21 29 -1 32 2 28
20 -3 11 -6 25 -6 31 0 20 -29 24 -45 7z m35 -18 c0 -16 -27 -32 -37 -21 -7 7
16 36 28 36 5 0 9 -7 9 -15z"/>
<path d="M1079 356 c-5 -38 -29 -47 -29 -12 0 14 -4 26 -10 26 -13 0 -13 -12
0 -44 5 -14 16 -26 25 -26 16 0 29 38 23 67 -3 12 -6 9 -9 -11z"/>
<path d="M766 354 c-9 -24 12 -54 39 -54 14 0 25 5 25 11 0 6 -9 9 -20 6 -24
-6 -25 -1 -5 20 8 8 13 19 10 24 -10 15 -42 10 -49 -7z"/>
<path d="M972 338 c2 -15 11 -24 25 -26 14 -2 23 -11 25 -25 2 -12 6 -17 9
-12 4 6 2 26 -5 45 -8 25 -18 36 -34 38 -20 3 -23 0 -20 -20z"/>
<path d="M1100 336 c0 -14 5 -28 11 -31 15 -10 18 -4 12 28 -7 34 -23 36 -23
3z"/>
</g>
</svg>
