<svg xmlns="http://www.w3.org/2000/svg" version="1.1" xmlns:xlink="http://www.w3.org/1999/xlink" xmlns:svgjs="http://svgjs.dev/svgjs" width="1500" height="1500" viewBox="0 0 1500 1500"><rect width="1500" height="1500" fill="#ffffff"></rect><g transform="matrix(0.6666666666666666,0,0,0.6666666666666666,249.39393939393938,667.6860162333766)"><svg viewBox="0 0 396 65" data-background-color="#ffffff" preserveAspectRatio="xMidYMid meet" height="246" width="1500" xmlns="http://www.w3.org/2000/svg" xmlns:xlink="http://www.w3.org/1999/xlink"><g id="tight-bounds" transform="matrix(1,0,0,1,0.2400000000000091,0.12444478555198657)"><svg viewBox="0 0 395.52 64.75111042889603" height="64.75111042889603" width="395.52"><g><svg viewBox="0 0 481.6334603233058 78.84886067871584" height="64.75111042889603" width="395.52"><g transform="matrix(1,0,0,1,86.11346032330587,10.897346157478097)"><svg viewBox="0 0 395.52 57.05416836375964" height="57.05416836375964" width="395.52"><g id="textblocktransform"><svg viewBox="0 0 395.52 57.05416836375964" height="57.05416836375964" width="395.52" id="textblock"><g><svg viewBox="0 0 395.52 30.77229216265118" height="30.77229216265118" width="395.52"><g transform="matrix(1,0,0,1,0,0)"><svg width="395.52" viewBox="3.6 -33.25 524.99 40.85" height="30.77229216265118" data-palette-color="#0f2f81"><path d="M14.4-10.15L7.85-10.15 7.85 0 3.6 0 3.6-31.35 14.25-31.35Q20.9-31.35 23.78-28.95 26.65-26.55 26.65-21.1L26.65-21.1Q26.65-15.55 23.65-12.85 20.65-10.15 14.4-10.15L14.4-10.15ZM22.35-21.1L22.35-21.1Q22.35-24.55 20.48-26.03 18.6-27.5 14.25-27.5L14.25-27.5 7.85-27.5 7.85-13.9 14.25-13.9Q18.6-13.9 20.48-15.6 22.35-17.3 22.35-21.1ZM53.15-12.4L53.15-12.4Q53.15-5.4 50.57-2.5 48 0.4 41.75 0.4L41.75 0.4Q35.3 0.4 32.8-2.4 30.3-5.2 30.3-12.4L30.3-12.4Q30.3-19.45 32.87-22.33 35.45-25.2 41.75-25.2L41.75-25.2Q48.2-25.2 50.67-22.4 53.15-19.6 53.15-12.4ZM34.4-12.45L34.4-12.45Q34.4-6.95 35.85-5.18 37.3-3.4 41.75-3.4L41.75-3.4Q46.05-3.4 47.55-5.28 49.05-7.15 49.05-12.45L49.05-12.45Q49.05-17.95 47.62-19.73 46.2-21.5 41.75-21.5L41.75-21.5Q37.4-21.5 35.9-19.65 34.4-17.8 34.4-12.45ZM62.7-19.35L62.7 0 58.59 0 58.59-24.7 62.34-24.7 62.55-22.6 62.75-22.6Q64.7-23.75 66.65-24.33 68.59-24.9 70.5-24.9L70.5-24.9Q71.3-24.9 71.57-24.9 71.84-24.9 72-24.85L72-24.85 72-20.9Q71.65-21 71.12-21.03 70.59-21.05 69.5-21.05L69.5-21.05Q67.7-21.05 65.97-20.63 64.25-20.2 62.7-19.35L62.7-19.35ZM90.74-3.85L90.74-3.85 90.74-0.4Q89.94-0.05 88.57 0.18 87.19 0.4 85.94 0.4L85.94 0.4Q81.44 0.4 79.52-1.6 77.59-3.6 77.59-8.5L77.59-8.5 77.59-21.2 73.89-21.2 73.89-24.7 77.64-24.7 78.29-30.7 81.69-30.7 81.69-24.7 90.49-24.7 90.49-21.2 81.69-21.2 81.69-8.65Q81.69-5.6 82.82-4.5 83.94-3.4 86.79-3.4L86.79-3.4Q87.69-3.4 88.87-3.55 90.04-3.7 90.74-3.85ZM100.39 0.4L100.39 0.4Q96.59 0.4 94.82-1.43 93.04-3.25 93.04-7.2L93.04-7.2Q93.04-11.2 95.19-12.88 97.34-14.55 102.49-14.55L102.49-14.55Q104.19-14.55 105.84-14.4 107.49-14.25 108.94-13.95L108.94-13.95 108.94-16.35Q108.94-19.1 107.54-20.3 106.14-21.5 103.04-21.5L103.04-21.5Q100.74-21.5 98.99-21.33 97.24-21.15 95.49-20.75L95.49-20.75 95.49-24.3Q97.49-24.8 99.57-25 101.64-25.2 104.29-25.2L104.29-25.2Q108.74-25.2 110.89-23.13 113.04-21.05 113.04-16.7L113.04-16.7 113.04 0 109.29 0 109.09-2.3 108.99-2.3Q107.49-1.1 105.12-0.35 102.74 0.4 100.39 0.4ZM102.94-11.2L102.94-11.2Q99.54-11.2 98.22-10.38 96.89-9.55 96.89-7.45L96.89-7.45Q96.89-5.25 97.99-4.28 99.09-3.3 101.59-3.3L101.59-3.3Q103.54-3.3 105.59-3.9 107.64-4.5 108.94-5.4L108.94-5.4 108.94-10.7Q107.29-10.95 105.87-11.08 104.44-11.2 102.94-11.2ZM119.44-33.25L123.54-33.25 123.54 0 119.44 0 119.44-33.25ZM143.23-4L159.78-4 159.78 0 138.98 0 138.98-31.35 159.33-31.35 159.33-27.5 143.23-27.5 143.23-17.9 157.48-17.9 157.48-14.15 143.23-14.15 143.23-4ZM173.33-21.5L173.33-21.5Q170.13-21.5 168.91-20.75 167.68-20 167.68-17.7L167.68-17.7Q167.68-16.5 168.26-15.88 168.83-15.25 170.08-15.05L170.08-15.05 176.43-14.1Q179.43-13.65 180.63-12.23 181.83-10.8 181.83-7.75L181.83-7.75Q181.83-3.45 179.78-1.53 177.73 0.4 172.98 0.4L172.98 0.4Q170.13 0.4 167.68 0.1 165.23-0.2 163.63-0.7L163.63-0.7 163.63-4.55Q165.23-4.05 167.56-3.73 169.88-3.4 172.33-3.4L172.33-3.4Q175.43-3.4 176.58-4.3 177.73-5.2 177.73-7.5L177.73-7.5Q177.73-8.95 177.08-9.63 176.43-10.3 174.73-10.55L174.73-10.55 168.38-11.5Q165.98-11.85 164.81-13.35 163.63-14.85 163.58-17.7L163.58-17.7Q163.58-21.6 165.91-23.4 168.23-25.2 173.08-25.2L173.08-25.2Q175.08-25.2 176.71-25.1 178.33-25 180.13-24.7L180.13-24.7 180.13-21.05Q178.83-21.25 177.08-21.38 175.33-21.5 173.33-21.5ZM201.03-3.85L201.03-3.85 201.03-0.4Q200.23-0.05 198.85 0.18 197.48 0.4 196.23 0.4L196.23 0.4Q191.73 0.4 189.8-1.6 187.88-3.6 187.88-8.5L187.88-8.5 187.88-21.2 184.18-21.2 184.18-24.7 187.93-24.7 188.58-30.7 191.98-30.7 191.98-24.7 200.78-24.7 200.78-21.2 191.98-21.2 191.98-8.65Q191.98-5.6 193.1-4.5 194.23-3.4 197.08-3.4L197.08-3.4Q197.98-3.4 199.15-3.55 200.33-3.7 201.03-3.85ZM213.08 0.4L213.08 0.4Q208.98 0.4 206.93-1.65 204.88-3.7 204.88-7.8L204.88-7.8 204.88-24.7 208.98-24.7 208.98-8.3Q208.98-5.75 210.28-4.6 211.58-3.45 214.38-3.45L214.38-3.45Q216.08-3.45 217.8-3.88 219.53-4.3 221.28-5.2L221.28-5.2 221.28-24.7 225.38-24.7 225.38 0 221.63 0 221.43-2.05 221.33-2.05Q218.73-0.7 216.83-0.15 214.93 0.4 213.08 0.4ZM248.32-24.15L248.32-33.25 252.42-33.25 252.42 0 248.87 0 248.57-2.3 248.47-2.3Q247.02-0.95 244.95-0.28 242.87 0.4 240.17 0.4L240.17 0.4Q235.12 0.4 232.95-2.6 230.77-5.6 230.77-12.4L230.77-12.4Q230.77-19.2 233.42-22.2 236.07-25.2 242.27-25.2L242.27-25.2Q244.02-25.2 245.55-24.93 247.07-24.65 248.32-24.15L248.32-24.15ZM242.77-21.5L242.77-21.5Q238.12-21.5 236.5-19.55 234.87-17.6 234.87-12.4L234.87-12.4Q234.87-7.35 236.3-5.38 237.72-3.4 241.62-3.4L241.62-3.4Q243.47-3.4 245.17-3.88 246.87-4.35 248.32-5.3L248.32-5.3 248.32-20.5Q247.12-21 245.77-21.25 244.42-21.5 242.77-21.5ZM277.57-4.8L277.57-4.8 277.57-1.35Q276.27-0.65 273.75-0.13 271.22 0.4 268.62 0.4L268.62 0.4Q262.82 0.4 260.32-2.6 257.82-5.6 257.82-12.5L257.82-12.5Q257.82-19.15 260.42-22.18 263.02-25.2 268.72-25.2L268.72-25.2Q274.02-25.2 276.32-22.83 278.62-20.45 278.62-14.9L278.62-14.9Q278.62-13.9 278.57-13.05 278.52-12.2 278.37-11L278.37-11 261.97-11Q262.02-6.9 263.65-5.15 265.27-3.4 269.27-3.4L269.27-3.4Q271.42-3.4 273.77-3.8 276.12-4.2 277.57-4.8ZM274.87-15.45L274.87-15.45Q274.82-18.75 273.42-20.13 272.02-21.5 268.72-21.5L268.72-21.5Q265.02-21.5 263.5-19.93 261.97-18.35 261.97-14.4L261.97-14.4 274.82-14.4Q274.82-14.5 274.85-14.88 274.87-15.25 274.87-15.45ZM311.02-4.8L311.02-4.8 311.02-1.35Q309.72-0.65 307.19-0.13 304.67 0.4 302.07 0.4L302.07 0.4Q296.27 0.4 293.77-2.6 291.27-5.6 291.27-12.5L291.27-12.5Q291.27-19.15 293.87-22.18 296.47-25.2 302.17-25.2L302.17-25.2Q307.47-25.2 309.77-22.83 312.07-20.45 312.07-14.9L312.07-14.9Q312.07-13.9 312.02-13.05 311.97-12.2 311.82-11L311.82-11 295.42-11Q295.47-6.9 297.09-5.15 298.72-3.4 302.72-3.4L302.72-3.4Q304.87-3.4 307.22-3.8 309.57-4.2 311.02-4.8ZM308.32-15.45L308.32-15.45Q308.27-18.75 306.87-20.13 305.47-21.5 302.17-21.5L302.17-21.5Q298.47-21.5 296.94-19.93 295.42-18.35 295.42-14.4L295.42-14.4 308.27-14.4Q308.27-14.5 308.29-14.88 308.32-15.25 308.32-15.45ZM337.41-11.25L330.46-11.25 330.46 0 326.21 0 326.21-31.35 336.86-31.35Q343.51-31.35 346.39-29.08 349.26-26.8 349.26-21.55L349.26-21.55Q349.26-17.45 347.44-15.03 345.61-12.6 341.91-11.75L341.91-11.75 350.11 0 345.01 0 337.41-11.25ZM344.96-21.55L344.96-21.55Q344.96-24.75 343.11-26.13 341.26-27.5 336.86-27.5L336.86-27.5 330.46-27.5 330.46-15 336.86-15Q341.16-15 343.06-16.55 344.96-18.1 344.96-21.55ZM373.11-4.8L373.11-4.8 373.11-1.35Q371.81-0.65 369.28-0.13 366.76 0.4 364.16 0.4L364.16 0.4Q358.36 0.4 355.86-2.6 353.36-5.6 353.36-12.5L353.36-12.5Q353.36-19.15 355.96-22.18 358.56-25.2 364.26-25.2L364.26-25.2Q369.56-25.2 371.86-22.83 374.16-20.45 374.16-14.9L374.16-14.9Q374.16-13.9 374.11-13.05 374.06-12.2 373.91-11L373.91-11 357.51-11Q357.56-6.9 359.18-5.15 360.81-3.4 364.81-3.4L364.81-3.4Q366.96-3.4 369.31-3.8 371.66-4.2 373.11-4.8ZM370.41-15.45L370.41-15.45Q370.36-18.75 368.96-20.13 367.56-21.5 364.26-21.5L364.26-21.5Q360.56-21.5 359.03-19.93 357.51-18.35 357.51-14.4L357.51-14.4 370.36-14.4Q370.36-14.5 370.38-14.88 370.41-15.25 370.41-15.45ZM387.96-21.5L387.96-21.5Q384.76-21.5 383.53-20.75 382.31-20 382.31-17.7L382.31-17.7Q382.31-16.5 382.88-15.88 383.46-15.25 384.71-15.05L384.71-15.05 391.06-14.1Q394.06-13.65 395.26-12.23 396.46-10.8 396.46-7.75L396.46-7.75Q396.46-3.45 394.41-1.53 392.36 0.4 387.61 0.4L387.61 0.4Q384.76 0.4 382.31 0.1 379.86-0.2 378.26-0.7L378.26-0.7 378.26-4.55Q379.86-4.05 382.18-3.73 384.51-3.4 386.96-3.4L386.96-3.4Q390.06-3.4 391.21-4.3 392.36-5.2 392.36-7.5L392.36-7.5Q392.36-8.95 391.71-9.63 391.06-10.3 389.36-10.55L389.36-10.55 383.01-11.5Q380.61-11.85 379.43-13.35 378.26-14.85 378.21-17.7L378.21-17.7Q378.21-21.6 380.53-23.4 382.86-25.2 387.71-25.2L387.71-25.2Q389.71-25.2 391.33-25.1 392.96-25 394.76-24.7L394.76-24.7 394.76-21.05Q393.46-21.25 391.71-21.38 389.96-21.5 387.96-21.5ZM405.5-0.6L405.5 7.6 401.4 7.6 401.4-24.7 404.95-24.7 405.2-22.5 405.35-22.5Q406.9-23.8 409.05-24.5 411.2-25.2 413.65-25.2L413.65-25.2Q418.7-25.2 420.88-22.2 423.05-19.2 423.05-12.4L423.05-12.4Q423.05-5.6 420.4-2.6 417.75 0.4 411.55 0.4L411.55 0.4Q409.7 0.4 408.18 0.15 406.65-0.1 405.5-0.6L405.5-0.6ZM418.95-12.4L418.95-12.4Q418.95-17.5 417.53-19.5 416.1-21.5 412.2-21.5L412.2-21.5Q410.35-21.5 408.68-20.98 407-20.45 405.5-19.45L405.5-19.45 405.5-4.4Q406.75-3.9 408.08-3.65 409.4-3.4 411.05-3.4L411.05-3.4Q415.7-3.4 417.33-5.33 418.95-7.25 418.95-12.4ZM450.15-12.4L450.15-12.4Q450.15-5.4 447.58-2.5 445 0.4 438.75 0.4L438.75 0.4Q432.3 0.4 429.8-2.4 427.3-5.2 427.3-12.4L427.3-12.4Q427.3-19.45 429.88-22.33 432.45-25.2 438.75-25.2L438.75-25.2Q445.2-25.2 447.68-22.4 450.15-19.6 450.15-12.4ZM431.4-12.45L431.4-12.45Q431.4-6.95 432.85-5.18 434.3-3.4 438.75-3.4L438.75-3.4Q443.05-3.4 444.55-5.28 446.05-7.15 446.05-12.45L446.05-12.45Q446.05-17.95 444.63-19.73 443.2-21.5 438.75-21.5L438.75-21.5Q434.4-21.5 432.9-19.65 431.4-17.8 431.4-12.45ZM459.7-19.25L459.7 0 455.6 0 455.6-24.7 459.15-24.7 459.35-22.3 459.5-22.3Q461.5-23.8 463.67-24.5 465.85-25.2 468.55-25.2L468.55-25.2Q472.65-25.2 474.77-23.15 476.9-21.1 476.9-17.1L476.9-17.1 476.9 0 472.8 0 472.8-16.6Q472.8-19.1 471.4-20.3 470-21.5 467.1-21.5L467.1-21.5Q465.3-21.5 463.42-20.93 461.55-20.35 459.7-19.25L459.7-19.25ZM499.64-24.15L499.64-33.25 503.75-33.25 503.75 0 500.19 0 499.89-2.3 499.8-2.3Q498.35-0.95 496.27-0.28 494.19 0.4 491.5 0.4L491.5 0.4Q486.44 0.4 484.27-2.6 482.1-5.6 482.1-12.4L482.1-12.4Q482.1-19.2 484.75-22.2 487.39-25.2 493.6-25.2L493.6-25.2Q495.35-25.2 496.87-24.93 498.39-24.65 499.64-24.15L499.64-24.15ZM494.1-21.5L494.1-21.5Q489.44-21.5 487.82-19.55 486.19-17.6 486.19-12.4L486.19-12.4Q486.19-7.35 487.62-5.38 489.05-3.4 492.94-3.4L492.94-3.4Q494.8-3.4 496.5-3.88 498.19-4.35 499.64-5.3L499.64-5.3 499.64-20.5Q498.44-21 497.1-21.25 495.75-21.5 494.1-21.5ZM515.94 0.4L515.94 0.4Q512.14 0.4 510.37-1.43 508.59-3.25 508.59-7.2L508.59-7.2Q508.59-11.2 510.74-12.88 512.89-14.55 518.04-14.55L518.04-14.55Q519.74-14.55 521.39-14.4 523.04-14.25 524.49-13.95L524.49-13.95 524.49-16.35Q524.49-19.1 523.09-20.3 521.69-21.5 518.59-21.5L518.59-21.5Q516.29-21.5 514.54-21.33 512.79-21.15 511.04-20.75L511.04-20.75 511.04-24.3Q513.04-24.8 515.12-25 517.19-25.2 519.84-25.2L519.84-25.2Q524.29-25.2 526.44-23.13 528.59-21.05 528.59-16.7L528.59-16.7 528.59 0 524.84 0 524.64-2.3 524.54-2.3Q523.04-1.1 520.67-0.35 518.29 0.4 515.94 0.4ZM518.49-11.2L518.49-11.2Q515.09-11.2 513.77-10.38 512.44-9.55 512.44-7.45L512.44-7.45Q512.44-5.25 513.54-4.28 514.64-3.3 517.14-3.3L517.14-3.3Q519.09-3.3 521.14-3.9 523.19-4.5 524.49-5.4L524.49-5.4 524.49-10.7Q522.84-10.95 521.42-11.08 519.99-11.2 518.49-11.2Z" opacity="1" transform="matrix(1,0,0,1,0,0)" fill="#000000" class="wordmark-text-0" data-fill-palette-color="primary" id="text-0"></path></svg></g></svg></g><g transform="matrix(1,0,0,1,0,38.03689180724122)"><svg viewBox="0 0 185.0005383321291 19.01727655651843" height="19.01727655651843" width="185.0005383321291"><g transform="matrix(1,0,0,1,0,0)"><svg width="185.0005383321291" viewBox="4.2 -38.35 470.32 48.35" height="19.01727655651843" data-palette-color="#0f2f81"><path d="M44.6-22.5L44.6-22.5Q44.6-19.05 42.93-16.23 41.25-13.4 38.4-11.7 35.55-10 32.1-10L32.1-10 12-10 12-14.95 32.1-14.95Q34.2-14.95 35.9-15.98 37.6-17 38.6-18.73 39.6-20.45 39.6-22.5L39.6-22.5Q39.6-24.6 38.6-26.3 37.6-28 35.9-29 34.2-30 32.1-30L32.1-30 9.2-30 9.2 0 4.2 0 4.2-35 32.1-35Q35.55-35 38.4-33.33 41.25-31.65 42.93-28.8 44.6-25.95 44.6-22.5ZM76.75-27.5L76.75-22.5 58-22.5Q56.45-22.5 55.35-21.4 54.25-20.3 54.25-18.75L54.25-18.75 54.25 0 49.25 0 49.25-18.75Q49.25-21.2 50.42-23.18 51.6-25.15 53.6-26.33 55.6-27.5 58-27.5L58-27.5 76.75-27.5ZM112.09-18.75L112.09 0 87.1 0Q84.7 0 82.7-1.18 80.7-2.35 79.52-4.33 78.35-6.3 78.35-8.75L78.35-8.75Q78.35-11.2 79.52-13.18 80.7-15.15 82.7-16.32 84.7-17.5 87.1-17.5L87.1-17.5 104.6-17.5 104.6-12.5 87.1-12.5Q85.55-12.5 84.45-11.4 83.35-10.3 83.35-8.75L83.35-8.75Q83.35-7.2 84.45-6.1 85.55-5 87.1-5L87.1-5 107.1-5 107.1-18.75Q107.1-20.3 106-21.4 104.9-22.5 103.35-22.5L103.35-22.5 83.35-22.5 83.35-27.5 103.35-27.5Q105.8-27.5 107.77-26.33 109.75-25.15 110.92-23.18 112.09-21.2 112.09-18.75L112.09-18.75ZM128.74-22.5L128.74 0 123.74 0 123.74-22.5 116.24-22.5 116.24-27.5 123.74-27.5 123.74-37.5 128.74-37.5 128.74-27.5 146.24-27.5 146.24-22.5 128.74-22.5ZM156.44-33.75L156.44-33.75Q156.44-32.2 155.34-31.1 154.24-30 152.69-30L152.69-30Q151.14-30 150.04-31.1 148.94-32.2 148.94-33.75L148.94-33.75Q148.94-35.3 150.04-36.4 151.14-37.5 152.69-37.5L152.69-37.5Q154.24-37.5 155.34-36.4 156.44-35.3 156.44-33.75ZM155.19-27.5L155.19 0 150.19 0 150.19-27.5 155.19-27.5ZM193.04-27.5L193.04 10 188.04 10 188.04-22.5 174.29-22.5Q171.89-22.5 169.94-21.33 167.99-20.15 166.81-18.15 165.64-16.15 165.64-13.75L165.64-13.75Q165.64-11.35 166.81-9.38 167.99-7.4 169.94-6.23 171.89-5.05 174.29-5L174.29-5 185.54-5 185.54 0 174.29 0Q171.44 0 168.96-1.07 166.49-2.15 164.61-4.05 162.74-5.95 161.69-8.43 160.64-10.9 160.64-13.75L160.64-13.75Q160.64-16.6 161.69-19.07 162.74-21.55 164.61-23.45 166.49-25.35 168.96-26.43 171.44-27.5 174.29-27.5L174.29-27.5 193.04-27.5ZM232.19-27.5L232.19 0 213.44 0Q210.58 0 208.11-1.07 205.63-2.15 203.76-4.05 201.88-5.95 200.83-8.43 199.78-10.9 199.78-13.75L199.78-13.75 199.78-27.5 204.78-27.5 204.78-13.75Q204.78-11.35 205.96-9.38 207.13-7.4 209.08-6.23 211.03-5.05 213.44-5L213.44-5 227.19-5 227.19-27.5 232.19-27.5ZM271.38-18.75L271.38-18.75Q271.38-16.35 270.21-14.35 269.03-12.35 267.06-11.18 265.08-10 262.63-10L262.63-10 243.48-10Q244.53-7.8 246.61-6.4 248.68-5 251.28-5L251.28-5 267.63-5 267.63 0 251.28 0Q248.43 0 245.96-1.07 243.48-2.15 241.61-4.05 239.73-5.95 238.68-8.43 237.63-10.9 237.63-13.75L237.63-13.75Q237.63-16.6 238.68-19.07 239.73-21.55 241.61-23.45 243.48-25.35 245.96-26.43 248.43-27.5 251.28-27.5L251.28-27.5 262.63-27.5Q265.08-27.5 267.06-26.33 269.03-25.15 270.21-23.18 271.38-21.2 271.38-18.75ZM242.73-15L262.63-15Q264.18-15 265.28-16.1 266.38-17.2 266.38-18.75L266.38-18.75Q266.38-20.3 265.28-21.4 264.18-22.5 262.63-22.5L262.63-22.5 251.28-22.5Q249.08-22.5 247.26-21.5 245.43-20.5 244.23-18.8 243.03-17.1 242.73-15L242.73-15ZM325.68-27.5L325.68 1.25Q325.68 3.65 324.5 5.65 323.33 7.65 321.33 8.83 319.33 10 316.93 10L316.93 10 296.93 10 296.93 5 316.93 5Q318.48 5 319.58 3.9 320.68 2.8 320.68 1.25L320.68 1.25 320.68-22.5 306.93-22.5Q304.53-22.5 302.58-21.3 300.63-20.1 299.45-18.13 298.28-16.15 298.28-13.75L298.28-13.75Q298.28-11.35 299.45-9.38 300.63-7.4 302.58-6.23 304.53-5.05 306.93-5L306.93-5 318.18-5 318.18 0 306.93 0Q304.08 0 301.6-1.07 299.13-2.15 297.25-4.05 295.38-5.95 294.33-8.43 293.28-10.9 293.28-13.75L293.28-13.75Q293.28-16.6 294.33-19.07 295.38-21.55 297.25-23.45 299.13-25.35 301.6-26.43 304.08-27.5 306.93-27.5L306.93-27.5 325.68-27.5ZM360.18-27.5L360.18-22.5 341.43-22.5Q339.88-22.5 338.78-21.4 337.68-20.3 337.68-18.75L337.68-18.75 337.68 0 332.68 0 332.68-18.75Q332.68-21.2 333.85-23.18 335.03-25.15 337.03-26.33 339.03-27.5 341.43-27.5L341.43-27.5 360.18-27.5ZM395.52-18.75L395.52 0 370.52 0Q368.12 0 366.12-1.18 364.12-2.35 362.95-4.33 361.77-6.3 361.77-8.75L361.77-8.75Q361.77-11.2 362.95-13.18 364.12-15.15 366.12-16.32 368.12-17.5 370.52-17.5L370.52-17.5 388.02-17.5 388.02-12.5 370.52-12.5Q368.97-12.5 367.87-11.4 366.77-10.3 366.77-8.75L366.77-8.75Q366.77-7.2 367.87-6.1 368.97-5 370.52-5L370.52-5 390.52-5 390.52-18.75Q390.52-20.3 389.42-21.4 388.32-22.5 386.77-22.5L386.77-22.5 366.77-22.5 366.77-27.5 386.77-27.5Q389.22-27.5 391.2-26.33 393.17-25.15 394.35-23.18 395.52-21.2 395.52-18.75L395.52-18.75ZM386.92-38.35L388.82-34.05 379.67-30.75 378.47-33.4 386.92-38.35ZM412.17-22.5L412.17 0 407.17 0 407.17-22.5 399.67-22.5 399.67-27.5 407.17-27.5 407.17-37.5 412.17-37.5 412.17-27.5 429.67-27.5 429.67-22.5 412.17-22.5ZM439.87-33.75L439.87-33.75Q439.87-32.2 438.77-31.1 437.67-30 436.12-30L436.12-30Q434.57-30 433.47-31.1 432.37-32.2 432.37-33.75L432.37-33.75Q432.37-35.3 433.47-36.4 434.57-37.5 436.12-37.5L436.12-37.5Q437.67-37.5 438.77-36.4 439.87-35.3 439.87-33.75ZM438.62-27.5L438.62 0 433.62 0 433.62-27.5 438.62-27.5ZM474.52-8.75L474.52-8.75Q474.52-6.3 473.34-4.33 472.17-2.35 470.19-1.18 468.22 0 465.77 0L465.77 0 444.52 0 444.52-5 465.77-5Q467.32-5 468.42-6.1 469.52-7.2 469.52-8.75L469.52-8.75Q469.52-10.3 468.42-11.4 467.32-12.5 465.77-12.5L465.77-12.5 452.02-12.5Q449.97-12.5 448.24-13.5 446.52-14.5 445.52-16.23 444.52-17.95 444.52-20L444.52-20Q444.52-22.1 445.52-23.8 446.52-25.5 448.24-26.5 449.97-27.5 452.02-27.5L452.02-27.5 472.02-27.5 472.02-22.5 452.02-22.5Q450.97-22.5 450.24-21.78 449.52-21.05 449.52-20L449.52-20Q449.52-18.95 450.24-18.23 450.97-17.5 452.02-17.5L452.02-17.5 465.77-17.5Q468.22-17.5 470.19-16.32 472.17-15.15 473.34-13.18 474.52-11.2 474.52-8.75Z" opacity="1" transform="matrix(1,0,0,1,0,0)" fill="#000000" class="slogan-text-1" data-fill-palette-color="secondary" id="text-1"></path></svg></g></svg></g></svg></g></svg></g><g><svg viewBox="0 0 78.84886067871584 78.84886067871584" height="78.84886067871584" width="78.84886067871584"><g><svg xmlns="http://www.w3.org/2000/svg" xmlns:xlink="http://www.w3.org/1999/xlink" version="1.1" x="0" y="0" viewBox="0 0 100 100" style="enable-background:new 0 0 100 100;" xml:space="preserve" height="78.84886067871584" width="78.84886067871584" class="icon-icon-0" data-fill-palette-color="accent" id="icon-0"><rect x="37.463" y="25" width="24.977" height="12.598" fill="#000000" data-fill-palette-color="accent"></rect><path d="M87.414 25.146L100 12.549H87.414V0H12.488C5.591 0 0 5.591 0 12.5V87.5C0 94.409 5.591 100 12.488 100H87.414V37.646H99.902zM74.927 87.5H24.976V12.5H74.927z" fill="#000000" data-fill-palette-color="accent"></path></svg></g></svg></g></svg></g><defs></defs></svg><rect width="395.52" height="64.75111042889603" fill="none" stroke="none" visibility="hidden"></rect></g></svg></g></svg>